{"title":"Angelique Collection (2 van 5)(MULTI SUBS 10) 2Lions-Team","uid":5668479,"size":4573695567,"categoryP":"video","categoryS":"movies_dvdr","magnet":"?xt=urn:btih:901da14779dd57bccef1f2b545522e0e3dd1bba7&amp;dn=Angelique+Collection+%282+van+5%29%28MULTI+SUBS+10%29+2Lions-Team&amp;tr=udp%3A%2F%2Ftracker.openbittorrent.com%3A80&amp;tr=udp%3A%2F%2Fopen.demonii.com%3A1337&amp;tr=udp%3A%2F%2Ftracker.coppersurfer.tk%3A6969&amp;tr=udp%3A%2F%2Fexodus.desync.com%3A6969","seeders":0,"leechers":0,"uploader":"Pioen","files":-1,"time":1278239054,"description":"Angelique Collection Deel 2 van 5       \n \n \n  DVD 2 \n\n\n\nAngÃƒÂ©lique - The Road to Versailles \n\nDe aangrijpende avonturen van de beeldschone AngÃƒÂ©lique (MichÃƒÂ¨le Mercier) en haar aanvaringen met het noodlot, netjes verpakt in een box met vijf films. Haar liefde voor de rijke graaf van Toulouse, Joffrey de Peyrac (Robert Hossein), strookt niet altijd met de plannen van andere machtige mannen. Romantiek en passie ten tijde van Louis XIV - de Zonnekoning, met die heerlijke Franse zweem uit de jaren '60...\n\nNadat haar man Joffrey ter dood veroordeeld is, moet AngÃƒÂ©lique alleen met haar twee kinderen verder. Ze vlucht naar het hof van Miracles dat wordt geregeerd door Nicolas, een jeugdvriend van AngÃƒÂ©lique. Rivalen hebben een verbond gesloten met de politie en vallen de troepen van Nicolas aan. Nicolas offert zichzelf op zodat AngÃƒÂ©lique kan ontsnappen. Ze wordt echter gepakt en in de ChÃƒÂ«telet gevangenis opgesloten.\n\nFilms: AngÃƒÂ©lique, AngÃƒÂ©lique The Road To Verseilles, AngÃƒÂ©lique and The King, Untamable AngÃƒÂ©lique en AngÃƒÂ©lique and the Sultan. \n \n \nEnglish\n\nAngelique Collection\n\nAngÃƒÂ©lique, marquise des anges (1964) .... AngÃƒÂ©lique \nMerveilleuse AngÃƒÂ©lique (1965) .... Angelique: The Road to Versailles \nAngÃƒÂ©lique et le roy (1966) .... Angelique and the King \nIndomptable AngÃƒÂ©lique (1967)... Untamable Angelique\nAngÃƒÂ©lique et le sultan (1968) .... Angelique and the Sultan\n\n\nEnglish\n\nBased on the best-selling French novels by Anne and Serge Golon that captured hearts worldwide, the Angelique films chronicle the life of an adventurous heroine in the Louis XIV era. Five classic film adaptations star the beautiful Michele Mercier and the dashing Robert Hossein as her husband and true love. A swashbuckling blend of action, intrigue and passion, the Angelique films seamlessly capture the amazing life of a French country girl whose quest for love and happiness leads her from the gutters of Paris to the Palaces Versailles.\n\n\n\nThe potential for turning the AngÃƒÂ©lique books into movies was first realised in the 1960s when five French language films based were released. \n\nThey starred MichÃƒÂ¨le Mercier, a young but experienced actress from Nice, as AngÃƒÂ©lique, and Robert Hossein as Joffrey de Peyrac. \n\nIt is believed that Mike Todd, who was famous for producing Around the World in 80 Days and perhaps more famous for one time being married to Elizabeth Taylor, had been interested in producing the films, but he died in a plane crash before he could undertake the project. \n\nInstead, they were directed by Frenchman Bernard Borderie. All five were produced by Francis Cosne - the final two in partnership with Francois Chavane. \n\nToday the films are still shown regularly on TV in French-speaking countries as well as in Italy, Japan and Russia, so were certainly a commercial success.\n\n  \n &lt;a href=&quot;\nhttp://www.dvdbeaver.com/film2/DVDReviews37/angelique_collection.htm&quot; rel=&quot;nofollow&quot; target=&quot;_NEW&quot;&gt;\nhttp://www.dvdbeaver.com/film2/DVDReviews37/angelique_collection.htm&lt;/a&gt;\n\nSpotinformatie \nAudio : Frans \nSubs: Danish, Spanish, Finnish, Hungarian, Dutch, Norwegian, Portuguese, Swedish, Czech, Polish\nMenu : Yes\nCover : Yes\n \nCategorie : Beeld \nFormaat : DVD5 \nBron : Retail\n \n\nVideo\nID                               : 224 (0xE0)\nFormat                           : MPEG Video\nFormat version                   : Version 2\nFormat profile                   : Main@Main\nFormat settings, Matrix          : Default\nDuration                         : 26mn 58s\nBit rate mode                    : Variable\nBit rate                         : 5 001 Kbps\nNominal bit rate                 : 8 500 Kbps\nWidth                            : 720 pixels\nHeight                           : 576 pixels\nDisplay aspect ratio             : 16/9\nFrame rate                       : 25.000 fps\nStandard                         : PAL\nColorimetry                      : 4:2:0\nScan type                        : Interlaced\nScan order                       : Top Field First\nBits/(Pixel*Frame)               : 0.482\nStream size                      : 965 MiB (94%)\n\nAudio\nID                               : 128 (0x80)\nFormat                           : AC-3\nFormat/Info                      : Audio Coding 3\nDuration                         : 26mn 57s\nBit rate mode                    : Constant\nBit rate                         : 96.0 Kbps\nChannel(s)                       : 1 channel\nChannel positions                : C\nSampling rate                    : 48.0 KHz\nStream size                      : 18.5 MiB (2%)\n\n \nGenre : Avontuur\nRomantiek\n  &lt;a href=&quot;\nhttp://www.imdb.com/title/tt0058343/&quot; rel=&quot;nofollow&quot; target=&quot;_NEW&quot;&gt;\nhttp://www.imdb.com/title/tt0058343/&lt;/a&gt;\n \n*****************************************\n\nBrought to you by \nPioen\n\n2Lions Team\n\nmeer zien??\nKom dan eens kijken op ons forum \n\n\n\n\n2Lions the site to be for all your Dutch MOVIES and more\n\n******************************************\n\n\nDON T HIT AND RUN Niet gelijk afhaken als de FILM binnen is blijf seeden. \n\nDon`t quit after you finished the download, but keep seeding\n\n\nThere are fake torrents from uploaders who use our team name.\nThose are not ours, or members from our team.\nWe 2Lions-Team are not responsible for the fake posts on our name\n\nWij 2Lions-Team zijn niet verantwoordelijk voor die zieke FAKE posten die op onze naam worden gedaan   \n\n \n\n \n \n \n\n","torrent":{"xt":"urn:btih:901da14779dd57bccef1f2b545522e0e3dd1bba7","amp;dn":"Angelique+Collection+%282+van+5%29%28MULTI+SUBS+10%29+2Lions-Team","amp;tr":["udp%3A%2F%2Ftracker.openbittorrent.com%3A80","udp%3A%2F%2Fopen.demonii.com%3A1337","udp%3A%2F%2Ftracker.coppersurfer.tk%3A6969","udp%3A%2F%2Fexodus.desync.com%3A6969"],"infoHash":"901da14779dd57bccef1f2b545522e0e3dd1bba7","infoHashBuffer":{"type":"Buffer","data":[144,29,161,71,121,221,87,188,206,241,242,181,69,82,46,14,61,209,187,167]},"announce":[],"urlList":[]}}